<svg xmlns="http://www.w3.org/2000/svg" viewBox="0 0 1200 630" width="1200" height="630">
  <defs>
    <linearGradient id="bg" x1="0" y1="0" x2="1200" y2="630" gradientUnits="userSpaceOnUse">
      <stop offset="0" stop-color="#09090b"/>
      <stop offset="1" stop-color="#14532d"/>
    </linearGradient>
  </defs>
  <rect width="1200" height="630" fill="url(#bg)"/>
  <rect x="60" y="60" width="1080" height="510" rx="24" fill="rgba(24,24,27,0.6)" stroke="rgba(34,197,94,0.3)" stroke-width="1"/>
  <!-- Logo droplet -->
  <circle cx="160" cy="200" r="50" fill="#09090b" stroke="#22c55e" stroke-width="2.5"/>
  <path d="M160 172 C152 186, 148 194, 148 200 C148 206.6 153.4 212 160 212 C166.6 212 172 206.6 172 200 C172 194 168 186 160 172Z" fill="none" stroke="#22c55e" stroke-width="2.5" stroke-linecap="round"/>
  <!-- Brand text -->
  <text x="230" y="210" font-family="-apple-system,system-ui,sans-serif" font-weight="600" font-size="52" fill="#ffffff">aw</text>
  <text x="286" y="210" font-family="-apple-system,system-ui,sans-serif" font-weight="600" font-size="52" fill="#4ade80">ai</text>
  <text x="330" y="210" font-family="-apple-system,system-ui,sans-serif" font-weight="600" font-size="52" fill="#ffffff">reness</text>
  <!-- Tagline -->
  <text x="160" y="310" font-family="-apple-system,system-ui,sans-serif" font-weight="400" font-size="32" fill="#a1a1aa">See the invisible cost of AI</text>
  <!-- Metric icons -->
  <text x="160" y="420" font-family="-apple-system,system-ui,sans-serif" font-weight="500" font-size="26" fill="#60a5fa">Water</text>
  <text x="310" y="420" font-family="-apple-system,system-ui,sans-serif" font-weight="400" font-size="26" fill="#71717a">·</text>
  <text x="350" y="420" font-family="-apple-system,system-ui,sans-serif" font-weight="500" font-size="26" fill="#facc15">Energy</text>
  <text x="510" y="420" font-family="-apple-system,system-ui,sans-serif" font-weight="400" font-size="26" fill="#71717a">·</text>
  <text x="550" y="420" font-family="-apple-system,system-ui,sans-serif" font-weight="500" font-size="26" fill="#4ade80">CO₂</text>
  <!-- Footer -->
  <text x="160" y="500" font-family="-apple-system,system-ui,sans-serif" font-weight="400" font-size="20" fill="#71717a">Privacy-first · No data stored · Open source</text>
  <text x="880" y="500" font-family="-apple-system,system-ui,sans-serif" font-weight="400" font-size="20" fill="#52525b">awaireness.app</text>
</svg>
